<?xml version="1.0" encoding="UTF-8"?>
<!DOCTYPE svg PUBLIC "-//W3C//DTD SVG 1.1//EN" "http://www.w3.org/Graphics/SVG/1.1/DTD/svg11.dtd">
<!-- Creator: CorelDRAW -->
<svg xmlns="http://www.w3.org/2000/svg" xml:space="preserve" width="7.9376mm" height="8.4666mm" version="1.1" style="shape-rendering:geometricPrecision; text-rendering:geometricPrecision; image-rendering:optimizeQuality; fill-rule:evenodd; clip-rule:evenodd"
viewBox="0 0 880.73 939.42"
 xmlns:xlink="http://www.w3.org/1999/xlink"
 xmlns:xodm="http://www.corel.com/coreldraw/odm/2003">
 <defs>
  <style type="text/css">
   <![CDATA[
    .fil0 {fill:#E11F5E;fill-rule:nonzero}
   ]]>
  </style>
 </defs>
 <g id="Layer_x0020_1">
  <metadata id="CorelCorpID_0Corel-Layer"/>
  <g id="_2590586773840">
   <path class="fil0" d="M822.01 58.71l-73.4 0 0 -14.68c0,-24.27 -19.76,-44.03 -44.03,-44.03 -24.28,0 -44.04,19.76 -44.04,44.03l0 14.68 -440.36 0 0 -14.68c0,-24.27 -19.76,-44.03 -44.04,-44.03 -24.27,0 -44.03,19.76 -44.03,44.03l0 14.68 -73.4 0c-32.39,0 -58.72,26.35 -58.72,58.72l0 616.51c0,32.37 26.33,58.71 58.72,58.71l205.5 0c8.11,0 14.68,-6.57 14.68,-14.68 0,-8.11 -6.57,-14.68 -14.68,-14.68l-205.5 0c-16.18,0 -29.36,-13.17 -29.36,-29.35l0 -499.08 822.01 0 0 499.08c0,16.18 -13.18,29.35 -29.36,29.35l-161.46 0c-8.11,0 -14.68,6.57 -14.68,14.68 0,8.11 6.57,14.68 14.68,14.68l161.46 0c32.38,0 58.72,-26.34 58.72,-58.71 0,-26.87 0,-587.01 0,-616.51 0,-32.37 -26.34,-58.72 -58.72,-58.72zm-132.1 -14.68c0,-8.09 6.58,-14.68 14.68,-14.68 8.09,0 14.67,6.59 14.67,14.68l0 73.4c0,8.09 -6.58,14.68 -14.67,14.68 -8.1,0 -14.68,-6.59 -14.68,-14.68 0,-25.51 0,-47.96 0,-73.4zm-528.43 0c0,-8.09 6.58,-14.68 14.67,-14.68 8.1,0 14.68,6.59 14.68,14.68l0 73.4c0,8.09 -6.58,14.68 -14.68,14.68 -8.09,0 -14.67,-6.59 -14.67,-14.68 0,-25.51 0,-47.96 0,-73.4z"/>
   <path class="fil0" d="M689.9 616.5c0,-48.57 -39.51,-88.07 -88.08,-88.07 -48.57,0 -88.07,39.5 -88.07,88.07 0,43.58 31.79,79.86 73.39,86.85l0 81.96c0,68.8 -55.96,124.77 -124.77,124.77 -68.8,0 -124.76,-55.97 -124.76,-124.77l0 -81.56c65.95,-7.33 117.43,-63.4 117.43,-131.28l0 -132.1c0,-32.38 -26.34,-58.72 -58.72,-58.72 -8.1,0 -14.68,6.58 -14.68,14.68 0,8.11 6.58,14.68 14.68,14.68 16.19,0 29.36,13.17 29.36,29.36l0 132.1c0,56.67 -46.09,102.76 -102.75,102.76 -56.67,0 -102.76,-46.09 -102.76,-102.76l0 -132.1c0,-16.19 13.17,-29.36 29.36,-29.36 8.11,0 14.68,-6.57 14.68,-14.68 0,-8.1 -6.57,-14.68 -14.68,-14.68 -32.38,0 -58.72,26.34 -58.72,58.72l0 132.1c0,67.88 51.47,123.95 117.44,131.28l0 81.56c0,84.98 69.14,154.12 154.12,154.12 84.99,0 154.13,-69.14 154.13,-154.12l0 -81.96c41.6,-6.99 73.4,-43.26 73.4,-86.85zm-73.4 25.4c-19.56,11.4 -44.04,-2.95 -44.04,-25.4 0,-16.18 13.17,-29.36 29.36,-29.36 16.19,0 29.36,13.18 29.36,29.36 0,10.85 -5.91,20.33 -14.68,25.4z"/>
  </g>
 </g>
</svg>
