<?xml version="1.0" encoding="UTF-8"?>
<!DOCTYPE svg PUBLIC "-//W3C//DTD SVG 1.1//EN" "http://www.w3.org/Graphics/SVG/1.1/DTD/svg11.dtd">
<!-- Creator: CorelDRAW -->
<svg xmlns="http://www.w3.org/2000/svg" xml:space="preserve" width="10.848mm" height="9.525mm" version="1.1" style="shape-rendering:geometricPrecision; text-rendering:geometricPrecision; image-rendering:optimizeQuality; fill-rule:evenodd; clip-rule:evenodd"
viewBox="0 0 153.58 134.85"
 xmlns:xlink="http://www.w3.org/1999/xlink"
 xmlns:xodm="http://www.corel.com/coreldraw/odm/2003">
 <defs>
  <style type="text/css">
   <![CDATA[
    .fil2 {fill:#4DB135}
    .fil1 {fill:white}
    .fil0 {fill:#4DB135;fill-rule:nonzero}
   ]]>
  </style>
 </defs>
 <g id="Layer_x0020_1">
  <metadata id="CorelCorpID_0Corel-Layer"/>
  <g id="_2554188369440">
   <circle class="fil0" cx="65.55" cy="69.3" r="65.55"/>
   <polygon class="fil1" points="73.04,41.2 58.06,41.2 58.06,61.8 37.46,61.8 37.46,76.79 58.06,76.79 58.06,97.39 73.04,97.39 73.04,76.79 93.64,76.79 93.64,61.8 73.04,61.8 "/>
   <polygon class="fil1" points="132.98,0 117.99,0 117.99,20.6 97.39,20.6 97.39,35.58 117.99,35.58 117.99,56.19 132.98,56.19 132.98,35.58 153.58,35.58 153.58,20.6 132.98,20.6 "/>
   <polygon class="fil2" points="136.47,37.46 129.48,37.46 129.48,27.84 119.87,27.84 119.87,20.85 129.48,20.85 129.48,11.24 136.47,11.24 136.47,20.85 146.09,20.85 146.09,27.84 136.47,27.84 "/>
  </g>
 </g>
</svg>
